<?xml version="1.0" encoding="UTF-8" standalone="no"?>
<!-- Created with Inkscape (http://www.inkscape.org/) -->

<svg
   width="131.4048"
   height="41.534153"
   viewBox="0 0 131.4048 41.534153"
   version="1.1"
   id="svg1"
   inkscape:version="1.4 (e7c3feb100, 2024-10-09)"
   sodipodi:docname="positive-tutoring-logo-header.svg"
   xmlns:inkscape="http://www.inkscape.org/namespaces/inkscape"
   xmlns:sodipodi="http://sodipodi.sourceforge.net/DTD/sodipodi-0.dtd"
   xmlns="http://www.w3.org/2000/svg"
   xmlns:svg="http://www.w3.org/2000/svg">
  <sodipodi:namedview
     id="namedview1"
     pagecolor="#ffffff"
     bordercolor="#000000"
     borderopacity="0.25"
     inkscape:showpageshadow="2"
     inkscape:pageopacity="0.0"
     inkscape:pagecheckerboard="0"
     inkscape:deskcolor="#d1d1d1"
     inkscape:document-units="mm"
     inkscape:zoom="2.835923"
     inkscape:cx="93.796622"
     inkscape:cy="51.482356"
     inkscape:window-width="1322"
     inkscape:window-height="704"
     inkscape:window-x="20"
     inkscape:window-y="40"
     inkscape:window-maximized="1"
     inkscape:current-layer="layer1"
     inkscape:pageshadow="2"
     showgrid="false" />
  <defs
     id="defs1" />
  <g
     inkscape:label="Layer 1"
     inkscape:groupmode="layer"
     id="layer1"
     transform="translate(-3.1394539,-3.7226405)">
    <g
       id="g35"
       transform="matrix(0.54546396,0,0,0.5100646,-31.013525,-44.948753)">
      <path
         id="path32"
         style="stroke-width:0.0870299;stroke-linecap:round"
         inkscape:transform-center-x="1.7287298e-06"
         inkscape:transform-center-y="-4.6288074"
         d="m 84.999978,139.53257 c 2.731144,0.28744 5.205496,-2.51617 6.995226,-5.96327 2.718075,-5.23514 3.857094,-11.42528 1.918442,-11.05533 -18.714615,3.57131 -31.300932,10.72544 -31.300932,10.72544 0,0 17.564849,5.78562 22.387264,6.29316 z"
         sodipodi:nodetypes="ssscs" />
      <path
         id="path33"
         style="stroke-width:0.0870299;stroke-linecap:round"
         inkscape:transform-center-x="1.7287298e-06"
         inkscape:transform-center-y="-4.6288074"
         d="m 85.975411,141.04683 c -2.10044,1.06799 -9.615219,35.59923 -9.615219,35.59923 0,0 21.038596,-16.96375 21.401278,-20.20497 0.759605,-6.78844 -7.312792,-17.66873 -11.786059,-15.39426 z"
         sodipodi:nodetypes="scss" />
      <path
         id="path34"
         style="stroke-width:0.0870299;stroke-linecap:round"
         inkscape:transform-center-x="1.7287298e-06"
         inkscape:transform-center-y="-4.6288074"
         d="m 99.569885,156.61835 c 1.549525,2.23061 20.788415,20.23287 20.788415,20.23287 0,0 -7.38926,-35.57579 -9.41337,-36.48872 -11.804882,-5.32431 -12.223877,15.03392 -11.375045,16.25585 z"
         sodipodi:nodetypes="scss" />
      <path
         id="path35"
         style="stroke-width:0.0870299;stroke-linecap:round"
         inkscape:transform-center-x="1.7287298e-06"
         inkscape:transform-center-y="-4.6288074"
         d="m 131.93534,112.38049 c -12.57066,3.99829 -18.09979,5.82411 -33.099121,8.91583 -7.004424,1.44377 5.126311,20.45251 13.441181,16.44645 6.92568,-3.33675 19.65794,-25.36228 19.65794,-25.36228 z"
         sodipodi:nodetypes="cssc" />
      <circle
         style="fill:#000000;stroke-width:0.1;stroke-linecap:round"
         id="circle35"
         cx="97.530426"
         cy="106.78117"
         r="11.359156" />
    </g>
    <g
       id="text37"
       style="font-size:32.344px;line-height:27.169px;font-family:'Sarasa Mono Slab CL';-inkscape-font-specification:'Sarasa Mono Slab CL';fill:#bfbfbf;stroke-width:0.305614;stroke-linecap:round"
       aria-label="POSITIVE!  TUTORING"
       transform="matrix(0.54546396,0,0,0.5100646,-144.75503,-268.07791)">
      <path
         style="font-family:Rowdies;-inkscape-font-specification:Rowdies;fill:#000000"
         d="m 345.08007,573.61646 v -17.69217 l -0.64688,-3.26675 0.64688,-1.94064 h 10.35008 q 2.36112,0 4.23707,0.74391 1.90829,0.71157 3.00799,2.45815 1.13204,1.71423 1.13204,4.75457 0,3.04033 -1.19673,4.81925 -1.19673,1.74658 -3.33143,2.49049 -2.10236,0.74391 -4.81926,0.74391 h -3.55784 v 1.68189 l 0.32344,3.2344 -0.32344,1.97299 z m 5.82192,-11.96729 h 3.16972 q 1.68188,0 2.68455,-0.61453 1.00266,-0.64688 1.00266,-2.36111 0,-1.19673 -0.48516,-1.77892 -0.48516,-0.61454 -1.35845,-0.8086 -0.84094,-0.19407 -1.97298,-0.19407 h -3.36378 z m 26.78083,12.29073 q -2.07002,0 -4.04301,-0.48516 -1.94064,-0.51751 -3.52549,-1.81127 -1.55251,-1.29376 -2.49049,-3.59018 -0.90563,-2.29643 -0.90563,-5.88661 0,-3.59019 0.90563,-5.88661 0.93798,-2.29642 2.49049,-3.59018 1.58485,-1.29376 3.52549,-1.77892 1.97299,-0.51751 4.04301,-0.51751 2.07001,0 4.01065,0.51751 1.97299,0.5175 3.5255,1.81126 1.58485,1.29376 2.49049,3.59018 0.93797,2.29643 0.93797,5.85427 0,3.55784 -0.93797,5.85426 -0.90564,2.29643 -2.49049,3.59019 -1.55251,1.29376 -3.5255,1.81126 -1.94064,0.51751 -4.01065,0.51751 z m 0,-5.49849 q 2.39345,0 3.62252,-1.42313 1.22908,-1.42314 1.22908,-4.8516 0,-3.42847 -1.22908,-4.8516 -1.22907,-1.42314 -3.62252,-1.42314 -2.36112,0 -3.59019,1.45548 -1.22907,1.45548 -1.22907,4.81926 0,3.36377 1.22907,4.81925 1.22907,1.45548 3.59019,1.45548 z m 22.28499,5.49849 q -1.77892,0 -3.36377,-0.32344 -1.58486,-0.35579 -2.74924,-0.84095 -1.16439,-0.48516 -1.71423,-0.90563 v -5.78958 q 1.55251,0.87329 3.91362,1.64955 2.36111,0.74391 5.23973,0.74391 1.16438,0 1.71423,-0.2911 0.58219,-0.32344 0.58219,-1.09969 0,-0.84095 -1.29376,-1.3908 -1.26141,-0.58219 -4.01065,-1.42313 -2.13471,-0.67923 -3.65488,-1.48783 -1.48782,-0.84094 -2.29642,-2.07001 -0.77626,-1.26142 -0.77626,-3.20206 0,-2.00533 1.03501,-3.62253 1.03501,-1.6172 3.2344,-2.55517 2.19939,-0.93798 5.62786,-0.93798 1.03501,0 2.19939,0.097 1.19673,0.0647 1.9083,0.19407 l 3.65487,2.68455 -1.26142,3.94597 -7.66553,-2.10236 q -1.3261,0 -1.97298,0.54985 -0.61454,0.54984 -0.61454,1.3261 0,0.93798 1.06736,1.48782 1.06735,0.54985 3.07268,1.0997 3.16971,0.87329 4.91628,1.94064 1.74658,1.06735 2.45815,2.4258 0.71157,1.3261 0.71157,3.00799 0,3.10503 -2.49049,5.01332 -2.49049,1.87596 -7.47147,1.87596 z m 13.51983,-0.32344 v -17.72452 l -0.32344,-3.2344 0.32344,-1.94064 h 5.85426 v 22.89956 z m 14.91061,0 v -17.72452 l -6.4688,0.32344 v -5.49848 h 18.92124 v 5.49848 l -6.63052,-0.32344 v 12.54947 l 0.35578,3.2344 -0.35578,1.94065 z m 15.3634,0 v -17.72452 l -0.32344,-3.2344 0.32344,-1.94064 h 5.85426 v 22.89956 z m 15.23405,0 -5.82192,-17.75686 -0.97032,-3.20206 v -1.94064 h 6.14536 l 4.5605,17.01295 h 0.64688 l 4.49582,-17.01295 h 6.08067 v 1.94064 l -0.97032,3.20206 -5.78957,17.75686 z m 18.37141,0 -0.64688,-1.94065 0.64688,-3.2344 V 550.7169 h 16.01028 l 1.6172,0.97032 -2.13471,4.52816 -2.91096,-0.32344 h -6.75989 v 3.55784 h 8.70053 v 5.01332 h -3.81659 l -4.88394,-0.32344 v 4.30175 h 9.67085 l 3.84894,3.10503 -1.9083,2.07002 z"
         id="path37" />
      <path
         style="font-family:'Secular One';-inkscape-font-specification:'Secular One';fill:#000000"
         d="m 501.43104,566.01561 -1.16438,-14.49913 c -0.33165,-2.38151 6.4482,-2.53498 6.1777,-0.11771 l -1.19673,14.61684 z m 2.03767,8.40945 c -0.81938,0 -1.53095,-0.2911 -2.1347,-0.87329 -0.58219,-0.60375 -0.87329,-1.31532 -0.87329,-2.13471 0,-0.81938 0.2911,-1.53095 0.87329,-2.1347 0.60375,-0.60375 1.31532,-0.90563 2.1347,-0.90563 0.81939,0 1.52017,0.30188 2.10236,0.90563 0.60376,0.60375 0.90564,1.31532 0.90564,2.1347 0,0.81939 -0.30188,1.53096 -0.90564,2.13471 -0.58219,0.58219 -1.28297,0.87329 -2.10236,0.87329 z"
         id="path38"
         sodipodi:nodetypes="cccccscscscsss" />
      <path
         style="font-family:Rowdies;-inkscape-font-specification:Rowdies;fill:#000000"
         d="m 349.60823,604.0306 v -17.72452 l -6.4688,0.32344 v -5.49848 h 18.92124 v 5.49848 l -6.63052,-0.32344 v 12.54948 l 0.35579,3.2344 -0.35579,1.94064 z m 25.03426,0.32344 q -4.98098,0 -7.50381,-2.26408 -2.49049,-2.29643 -2.49049,-7.34209 v -8.40944 l 0.0324,-3.26675 -0.0324,-1.94064 h 5.88661 v 12.96995 q 0,2.26408 0.90563,3.68721 0.90564,1.3908 3.20206,1.3908 2.29642,0 3.2344,-1.29377 0.97032,-1.3261 0.97032,-3.78424 v -12.96995 h 5.78958 v 13.61683 q 0,4.94863 -2.45815,7.2774 -2.4258,2.32877 -7.53615,2.32877 z m 19.05064,-0.32344 v -17.72452 l -6.4688,0.32344 v -5.49848 h 18.92124 v 5.49848 l -6.63052,-0.32344 v 12.54948 l 0.35579,3.2344 -0.35579,1.94064 z m 24.90489,0.32344 q -2.07001,0 -4.043,-0.48516 -1.94064,-0.51751 -3.52549,-1.81127 -1.55252,-1.29376 -2.49049,-3.59018 -0.90563,-2.29643 -0.90563,-5.88661 0,-3.59019 0.90563,-5.88661 0.93797,-2.29642 2.49049,-3.59018 1.58485,-1.29376 3.52549,-1.77892 1.97299,-0.51751 4.043,-0.51751 2.07002,0 4.01066,0.51751 1.97298,0.5175 3.52549,1.81126 1.58486,1.29376 2.49049,3.59018 0.93798,2.29643 0.93798,5.85427 0,3.55784 -0.93798,5.85426 -0.90563,2.29643 -2.49049,3.59019 -1.55251,1.29376 -3.52549,1.81126 -1.94064,0.51751 -4.01066,0.51751 z m 0,-5.49848 q 2.39346,0 3.62253,-1.42314 1.22907,-1.42314 1.22907,-4.8516 0,-3.42847 -1.22907,-4.8516 -1.22907,-1.42314 -3.62253,-1.42314 -2.36111,0 -3.59018,1.45548 -1.22907,1.45548 -1.22907,4.81926 0,3.36377 1.22907,4.81925 1.22907,1.45549 3.59018,1.45549 z m 14.84588,5.17504 v -17.69217 l -0.64688,-3.26675 0.64688,-1.94064 h 10.35008 q 2.36111,0 4.23706,0.74391 1.9083,0.71157 3.00799,2.45815 1.13204,1.71423 1.13204,4.75457 0,2.74924 -1.00266,4.46347 -1.00266,1.68189 -2.78158,2.52283 l 0.32344,0.35578 3.20205,4.01066 1.84361,1.64955 v 1.94064 h -7.2774 l -4.52816,-6.88928 h -2.68455 v 1.68189 l 0.32344,3.2344 -0.32344,1.97299 z m 5.82192,-11.96729 h 3.16971 q 1.68189,0 2.68455,-0.61453 1.00267,-0.64688 1.00267,-2.36111 0,-1.19673 -0.48516,-1.77892 -0.48516,-0.61454 -1.35845,-0.8086 -0.84095,-0.19407 -1.97299,-0.19407 h -3.36377 z m 17.07764,11.96729 v -17.72452 l -0.32344,-3.2344 0.32344,-1.94064 h 5.85427 v 22.89956 z m 10.38246,0 v -17.69217 l -0.64688,-3.2344 0.64688,-1.94064 h 5.20738 l 6.53349,8.79756 1.55251,2.68456 h 0.32344 v -11.48212 h 6.11302 v 1.94064 l -0.32344,3.2344 v 17.69217 h -5.07801 l -8.11834,-11.38509 h -0.32344 v 1.94064 l 0.32344,9.44445 z m 35.22261,0.32344 q -2.49049,0 -4.72222,-0.48516 -2.1994,-0.51751 -3.91363,-1.81127 -1.68189,-1.29376 -2.65221,-3.59018 -0.97032,-2.29643 -0.97032,-5.88661 0,-3.46081 1.03501,-5.72489 1.03501,-2.29642 2.74924,-3.62253 1.74658,-1.3261 3.84894,-1.87595 2.1347,-0.54985 4.30175,-0.54985 1.58486,0 2.74924,0.16172 1.16438,0.16172 2.23174,0.42047 l 4.39878,2.55518 -2.26408,5.01332 -7.14802,-2.52283 q -1.55252,0 -2.87862,0.61453 -1.29376,0.61454 -2.10236,1.97299 -0.77626,1.3261 -0.77626,3.59018 0,3.65487 1.6172,5.1427 1.64955,1.45548 4.49582,1.45548 1.45548,0 2.26408,-0.12938 0.84094,-0.16172 1.29376,-0.25875 v -2.45814 h -4.10769 v -4.78692 h 10.28539 l 0.35579,1.94064 -0.71157,2.68456 v 6.79224 q -0.35578,0.12937 -1.6172,0.45281 -1.22907,0.32344 -3.2344,0.61454 -1.97298,0.2911 -4.52816,0.2911 z"
         id="path39" />
    </g>
  </g>
</svg>
